<?xml version="1.0" encoding="UTF-8"?>
<svg width="94px" height="47px" viewBox="0 0 94 47" version="1.1" xmlns="http://www.w3.org/2000/svg" xmlns:xlink="http://www.w3.org/1999/xlink">
    <!-- Generator: Sketch 52.5 (67469) - http://www.bohemiancoding.com/sketch -->
    <title>CBRF_eng_logo_vert_10_cmyk</title>
    <desc>Created with Sketch.</desc>
    <defs>
        <rect id="path-1" x="0" y="0" width="120.472" height="74.409"></rect>
        <rect id="path-3" x="0" y="0" width="120.472" height="74.409"></rect>
        <rect id="path-5" x="0" y="0" width="120.472" height="74.409"></rect>
        <rect id="path-7" x="0" y="0" width="120.472" height="74.409"></rect>
        <rect id="path-9" x="0" y="0" width="120.472" height="74.409"></rect>
        <rect id="path-11" x="0" y="0" width="120.472" height="74.409"></rect>
        <rect id="path-13" x="0" y="0" width="120.472" height="74.409"></rect>
        <rect id="path-15" x="0" y="0" width="120.472" height="74.409"></rect>
        <rect id="path-17" x="0" y="0" width="120.472" height="74.409"></rect>
        <rect id="path-19" x="0" y="0" width="120.472" height="74.409"></rect>
        <rect id="path-21" x="0" y="0" width="120.472" height="74.409"></rect>
        <rect id="path-23" x="0" y="0" width="120.472" height="74.409"></rect>
        <rect id="path-25" x="0" y="0" width="120.472" height="74.409"></rect>
        <rect id="path-27" x="0" y="0" width="120.472" height="74.409"></rect>
    </defs>
    <g id="Page-1" stroke="none" stroke-width="1" fill="none" fill-rule="evenodd">
        <g id="CBRF_eng_logo_vert_10_cmyk" transform="translate(-13.515625, -13.798828)">
            <g id="Clipped">
                <mask id="mask-2" fill="white">
                    <use xlink:href="#path-1"></use>
                </mask>
                <g id="SVGID_67_"></g>
                <path d="M15.343,49.661 C15.736,49.661 16.436,49.618 16.699,49.618 C18.77,49.618 20.404,50.013 20.404,51.879 C20.404,53.206 19.557,53.95 18.071,54.46 C20.156,54.898 20.74,55.861 20.74,57.115 C20.74,59.261 18.915,60.223 16.596,60.223 C16.042,60.223 15.168,60.179 14.729,60.179 C14.539,60.179 14.058,60.208 13.855,60.223 C13.942,58.617 13.972,56.4 13.972,54.563 C13.972,52.915 13.955,50.418 13.855,49.618 C14.22,49.633 15.109,49.661 15.343,49.661 Z M15.285,54.153 C15.446,54.168 15.708,54.184 16.057,54.184 C17.678,54.184 18.916,53.513 18.916,52.169 C18.916,50.93 17.838,50.436 16.511,50.436 C16.174,50.436 15.591,50.449 15.285,50.463 L15.285,54.153 Z M15.285,59.376 C15.606,59.391 16.145,59.406 16.524,59.406 C18.013,59.406 19.253,58.778 19.253,57.101 C19.253,55.788 18.537,54.955 15.694,54.955 L15.285,54.955 L15.285,59.376 Z" id="Shape" fill="#595959" fill-rule="nonzero" mask="url(#mask-2)"></path>
            </g>
            <g id="Clipped">
                <mask id="mask-4" fill="white">
                    <use xlink:href="#path-3"></use>
                </mask>
                <g id="SVGID_67_"></g>
                <path d="M22.713,53.586 C23.544,52.943 24.331,52.695 25.207,52.695 C26.738,52.695 27.803,53.469 27.803,55.38 L27.803,58.897 C27.803,59.727 27.964,59.815 28.27,59.815 C28.372,59.815 28.489,59.799 28.577,59.785 L28.663,60.15 C28.095,60.355 27.774,60.382 27.614,60.382 C27.132,60.382 26.825,60.164 26.709,59.741 L26.622,59.42 C25.833,60.047 24.973,60.382 24.26,60.382 C22.931,60.382 22.071,59.684 22.071,58.457 C22.071,57.145 22.96,56.532 24.112,56.327 L25.877,56.007 C26.374,55.92 26.636,55.774 26.636,55.409 C26.636,53.818 25.965,53.265 24.856,53.265 C23.996,53.265 23.281,53.585 22.887,54.432 L22.713,54.432 L22.713,53.586 Z M26.637,56.459 L25.674,56.605 C24.624,56.766 23.458,57.129 23.458,58.238 C23.458,59.085 23.924,59.536 24.871,59.536 C25.456,59.536 26.039,59.332 26.637,58.705 L26.637,56.459 Z" id="Shape" fill="#595959" fill-rule="nonzero" mask="url(#mask-4)"></path>
            </g>
            <g id="Clipped">
                <mask id="mask-6" fill="white">
                    <use xlink:href="#path-5"></use>
                </mask>
                <g id="SVGID_67_"></g>
                <path d="M30.662,52.885 C30.823,52.885 31.129,52.856 31.348,52.841 C31.318,53.09 31.274,53.717 31.274,53.98 C31.756,53.106 32.689,52.697 33.609,52.697 C35.024,52.697 36.132,53.587 36.132,55.074 C36.132,55.44 36.089,56.066 36.089,56.533 C36.089,57.146 36.103,59.115 36.221,60.223 C36,60.195 35.768,60.179 35.549,60.179 C35.301,60.179 35.01,60.195 34.79,60.223 C34.907,59.115 34.921,57.146 34.921,56.533 C34.921,54.301 34.25,53.529 33.113,53.529 C31.333,53.529 31.217,55.337 31.217,56.722 C31.217,56.985 31.231,59.115 31.348,60.223 C31.129,60.195 30.895,60.179 30.676,60.179 C30.429,60.179 30.137,60.195 29.918,60.223 C30.036,59.115 30.05,57.146 30.05,56.533 C30.05,55.789 30.036,53.937 29.918,52.842 C30.166,52.855 30.487,52.885 30.662,52.885" id="Path" fill="#595959" mask="url(#mask-6)"></path>
            </g>
            <g id="Clipped">
                <mask id="mask-8" fill="white">
                    <use xlink:href="#path-7"></use>
                </mask>
                <g id="SVGID_67_"></g>
                <path d="M38.948,48.771 C39.107,48.771 39.414,48.743 39.633,48.727 C39.516,49.835 39.502,51.952 39.502,53.104 L39.502,56.049 L39.735,56.049 C40.217,56.049 42.682,53.249 42.916,52.84 C43.119,52.855 43.455,52.884 43.63,52.884 C43.776,52.884 44.126,52.855 44.344,52.84 L40.859,55.962 C41.296,56.486 43.615,59.099 44.666,60.222 C44.272,60.192 43.995,60.178 43.79,60.178 C43.528,60.178 43.134,60.192 42.827,60.222 C42.288,59.375 40.639,57.436 39.735,56.444 L39.502,56.444 C39.502,56.983 39.516,59.114 39.633,60.222 C39.414,60.192 39.18,60.178 38.962,60.178 C38.714,60.178 38.422,60.192 38.204,60.222 C38.321,59.114 38.336,56.983 38.336,55.846 L38.336,53.104 C38.336,51.952 38.321,49.835 38.204,48.727 C38.451,48.743 38.771,48.771 38.948,48.771" id="Path" fill="#595959" mask="url(#mask-8)"></path>
            </g>
            <g id="Clipped">
                <mask id="mask-10" fill="white">
                    <use xlink:href="#path-9"></use>
                </mask>
                <g id="SVGID_67_"></g>
                <path d="M56.455,56.487 C56.455,58.718 55.011,60.382 52.721,60.382 C50.476,60.382 49.074,58.736 49.074,56.693 C49.074,54.272 50.621,52.696 52.853,52.696 C55.069,52.695 56.455,54.3 56.455,56.487 M50.46,56.648 C50.46,58.295 51.147,59.814 52.692,59.814 C54.18,59.814 55.069,58.383 55.069,56.429 C55.069,54.854 54.457,53.264 52.809,53.264 C51.233,53.265 50.46,54.913 50.46,56.648" id="Shape" fill="#595959" fill-rule="nonzero" mask="url(#mask-10)"></path>
            </g>
            <g id="Clipped">
                <mask id="mask-12" fill="white">
                    <use xlink:href="#path-11"></use>
                </mask>
                <g id="SVGID_67_"></g>
                <path d="M61.618,49.355 C61.618,49.501 61.648,49.793 61.662,50.042 C61.195,49.865 60.947,49.822 60.758,49.822 C59.928,49.822 59.489,50.26 59.489,51.121 C59.489,51.457 59.518,52.098 59.62,52.886 C60.043,52.886 60.743,52.827 61.223,52.768 C61.21,52.916 61.195,53.121 61.195,53.236 C61.195,53.368 61.211,53.544 61.223,53.66 C60.729,53.587 60.202,53.544 60.027,53.544 L59.591,53.544 L59.591,55.848 C59.591,56.985 59.605,59.116 59.721,60.224 C59.502,60.194 59.269,60.18 59.051,60.18 C58.803,60.18 58.512,60.194 58.292,60.224 C58.41,59.116 58.424,56.985 58.424,55.848 L58.424,53.544 L58.176,53.544 C58.044,53.544 57.841,53.557 57.402,53.66 C57.432,53.514 57.447,53.295 57.447,53.222 C57.447,53.149 57.432,52.931 57.402,52.769 C57.723,52.873 57.943,52.887 58.176,52.887 L58.424,52.887 C58.424,50.523 60.044,48.658 61.255,48.658 C61.443,48.658 61.559,48.671 61.662,48.702 C61.648,48.902 61.618,49.239 61.618,49.355" id="Path" fill="#595959" mask="url(#mask-12)"></path>
            </g>
            <g id="Clipped">
                <mask id="mask-14" fill="white">
                    <use xlink:href="#path-13"></use>
                </mask>
                <g id="SVGID_67_"></g>
                <path d="M68.604,49.661 C68.999,49.661 70.062,49.618 70.617,49.618 C72.485,49.618 73.681,50.436 73.681,52.025 C73.681,53.454 72.63,54.694 70.544,54.912 C73.258,58.384 73.826,59.071 74.848,60.223 C74.513,60.194 74.133,60.179 73.827,60.179 C73.507,60.179 73.156,60.194 72.864,60.223 C71.828,58.705 70.078,56.473 68.897,55.073 L68.371,55.073 C68.371,56.824 68.387,58.618 68.488,60.223 C68.239,60.194 67.991,60.179 67.744,60.179 C67.482,60.179 67.177,60.194 66.942,60.223 C67.029,58.618 67.059,56.402 67.059,54.564 C67.059,52.916 67.043,50.419 66.942,49.619 C67.365,49.647 68.256,49.661 68.604,49.661 Z M68.371,54.3 L68.853,54.3 C70.239,54.3 72.105,53.95 72.105,52.187 C72.105,51.092 71.26,50.437 69.566,50.437 C69.07,50.437 68.576,50.45 68.371,50.48 L68.371,54.3 Z" id="Shape" fill="#595959" fill-rule="nonzero" mask="url(#mask-14)"></path>
            </g>
            <g id="Clipped">
                <mask id="mask-16" fill="white">
                    <use xlink:href="#path-15"></use>
                </mask>
                <g id="SVGID_67_"></g>
                <path d="M76.729,52.885 C76.888,52.885 77.198,52.856 77.416,52.841 C77.298,53.95 77.284,55.92 77.284,56.532 C77.284,58.763 77.956,59.551 79.092,59.551 C80.874,59.551 80.99,57.729 80.99,56.343 C80.99,56.08 80.974,53.95 80.858,52.841 C81.105,52.856 81.425,52.885 81.602,52.885 C81.762,52.885 82.068,52.856 82.287,52.841 C82.17,53.937 82.156,55.775 82.156,56.532 C82.156,57.145 82.17,59.114 82.287,60.222 C82.068,60.194 81.835,60.178 81.616,60.178 C81.368,60.178 81.077,60.194 80.858,60.222 C80.886,59.973 80.929,59.346 80.929,59.084 C80.449,59.958 79.516,60.382 78.596,60.382 C77.181,60.382 76.074,59.479 76.074,57.989 C76.074,57.624 76.117,56.998 76.117,56.531 C76.117,55.919 76.102,53.949 75.986,52.84 C76.233,52.855 76.554,52.885 76.729,52.885" id="Path" fill="#595959" mask="url(#mask-16)"></path>
            </g>
            <g id="Clipped">
                <mask id="mask-18" fill="white">
                    <use xlink:href="#path-17"></use>
                </mask>
                <g id="SVGID_67_"></g>
                <path d="M87.801,54.256 C87.349,53.454 86.822,53.266 86.297,53.266 C85.598,53.266 85.057,53.732 85.057,54.46 C85.057,55.365 85.817,55.731 86.649,55.935 C87.918,56.255 88.647,56.65 88.647,57.918 C88.647,59.318 87.291,60.383 85.832,60.383 C85.087,60.383 84.432,60.179 83.907,59.784 C84.068,59.493 84.271,59.012 84.373,58.72 C84.928,59.625 85.497,59.816 86.11,59.816 C86.955,59.816 87.625,59.319 87.625,58.471 C87.625,57.509 86.823,57.262 85.906,57.015 C84.766,56.706 84.037,56.138 84.037,54.956 C84.037,53.586 85.044,52.695 86.516,52.695 C87.29,52.695 87.742,52.871 88.239,53.191 C88.092,53.498 87.917,53.906 87.801,54.256" id="Path" fill="#595959" mask="url(#mask-18)"></path>
            </g>
            <g id="Clipped">
                <mask id="mask-20" fill="white">
                    <use xlink:href="#path-19"></use>
                </mask>
                <g id="SVGID_67_"></g>
                <path d="M93.794,54.256 C93.344,53.454 92.817,53.266 92.292,53.266 C91.593,53.266 91.053,53.732 91.053,54.46 C91.053,55.365 91.813,55.731 92.645,55.935 C93.913,56.255 94.643,56.65 94.643,57.918 C94.643,59.318 93.285,60.383 91.827,60.383 C91.083,60.383 90.428,60.179 89.901,59.784 C90.063,59.493 90.266,59.012 90.367,58.72 C90.923,59.625 91.491,59.816 92.104,59.816 C92.951,59.816 93.621,59.319 93.621,58.471 C93.621,57.509 92.818,57.262 91.899,57.015 C90.762,56.706 90.032,56.138 90.032,54.956 C90.032,53.586 91.039,52.695 92.512,52.695 C93.284,52.695 93.737,52.871 94.233,53.191 C94.087,53.498 93.912,53.906 93.794,54.256" id="Path" fill="#595959" mask="url(#mask-20)"></path>
            </g>
            <g id="Clipped">
                <mask id="mask-22" fill="white">
                    <use xlink:href="#path-21"></use>
                </mask>
                <g id="SVGID_67_"></g>
                <path d="M98.156,50.129 C98.156,50.595 97.864,50.93 97.368,50.93 C96.872,50.93 96.581,50.595 96.581,50.129 C96.581,49.691 96.902,49.357 97.368,49.357 C97.864,49.356 98.156,49.604 98.156,50.129 M97.368,52.885 C97.528,52.885 97.836,52.856 98.056,52.841 C97.939,53.937 97.924,55.775 97.924,56.532 C97.924,57.145 97.939,59.114 98.056,60.222 C97.836,60.194 97.602,60.178 97.384,60.178 C97.137,60.178 96.844,60.194 96.624,60.222 C96.741,59.114 96.757,57.145 96.757,56.532 C96.757,55.788 96.741,53.936 96.624,52.841 C96.872,52.855 97.192,52.885 97.368,52.885" id="Shape" fill="#595959" fill-rule="nonzero" mask="url(#mask-22)"></path>
            </g>
            <g id="Clipped">
                <mask id="mask-24" fill="white">
                    <use xlink:href="#path-23"></use>
                </mask>
                <g id="SVGID_67_"></g>
                <path d="M100.665,53.586 C101.496,52.943 102.283,52.695 103.16,52.695 C104.692,52.695 105.756,53.469 105.756,55.38 L105.756,58.897 C105.756,59.727 105.916,59.815 106.224,59.815 C106.325,59.815 106.444,59.799 106.53,59.785 L106.617,60.15 C106.047,60.355 105.727,60.382 105.567,60.382 C105.085,60.382 104.78,60.164 104.662,59.741 L104.575,59.42 C103.788,60.047 102.928,60.382 102.212,60.382 C100.885,60.382 100.024,59.684 100.024,58.457 C100.024,57.145 100.914,56.532 102.067,56.327 L103.831,56.007 C104.327,55.92 104.59,55.774 104.59,55.409 C104.59,53.818 103.918,53.265 102.812,53.265 C101.951,53.265 101.237,53.585 100.841,54.432 L100.666,54.432 L100.666,53.586 L100.665,53.586 Z M104.589,56.459 L103.627,56.605 C102.575,56.766 101.409,57.129 101.409,58.238 C101.409,59.085 101.876,59.536 102.824,59.536 C103.407,59.536 103.99,59.332 104.589,58.705 L104.589,56.459 Z" id="Shape" fill="#595959" fill-rule="nonzero" mask="url(#mask-24)"></path>
            </g>
            <g id="Clipped">
                <mask id="mask-26" fill="white">
                    <use xlink:href="#path-25"></use>
                </mask>
                <g id="SVGID_67_"></g>
                <path d="M60.234,14.173 C52.408,14.173 46.062,20.519 46.062,28.346 C46.062,36.174 52.408,42.52 60.234,42.52 C68.065,42.52 74.41,36.174 74.41,28.346 C74.41,20.519 68.065,14.173 60.234,14.173 M60.234,41.424 C53.011,41.424 47.157,35.569 47.157,28.346 C47.157,21.122 53.011,15.268 60.234,15.268 C67.459,15.268 73.315,21.122 73.315,28.346 C73.315,35.569 67.459,41.424 60.234,41.424" id="Shape" fill="#595959" fill-rule="nonzero" mask="url(#mask-26)"></path>
            </g>
            <g id="Clipped">
                <mask id="mask-28" fill="white">
                    <use xlink:href="#path-27"></use>
                </mask>
                <g id="SVGID_67_"></g>
                <path d="M60.234,38.976 C60.725,38.976 61.021,38.646 61.039,38.196 C61.146,38.398 61.285,38.537 61.494,38.58 C61.699,38.62 61.922,38.59 62.109,38.507 C62.305,38.425 62.453,38.289 62.545,38.099 C62.64,37.909 62.608,37.712 62.541,37.483 C62.772,37.815 63.162,37.901 63.506,37.742 C63.978,37.521 64.15,37.122 63.955,36.665 C63.373,35.283 62.795,33.926 62.211,32.545 C62.158,32.42 62.112,32.291 62.056,32.166 C62.002,32.055 61.969,31.974 61.92,31.907 C61.886,31.86 61.844,31.82 61.783,31.782 C62.687,31.881 63.12,32.238 63.36,32.396 C63.423,32.438 63.42,32.444 63.664,32.368 C63.776,32.332 63.901,32.354 63.988,32.403 C64.098,32.463 64.209,32.53 64.305,32.605 C64.628,32.858 64.958,33.102 65.266,33.375 C65.408,33.503 65.614,33.721 65.584,33.917 C65.563,34.099 65.117,34.521 64.985,34.647 C64.67,34.945 65.147,35.506 65.782,35.453 C65.612,35.275 65.572,35.124 65.594,34.99 C65.657,34.989 65.779,35.001 65.894,34.899 C66.03,34.775 65.969,34.411 66.097,34.287 C66.32,34.069 67.051,34.048 67.488,34.03 C67.672,34.023 67.864,33.973 67.851,33.687 C68.128,33.706 68.187,33.913 68.187,34.099 C68.425,33.964 68.629,33.315 67.747,33.168 L67.747,33.167 C67.897,33.033 68.145,32.982 68.296,33.155 C68.441,32.918 68.077,32.45 67.424,32.713 C67.426,32.712 67.13,32.325 66.246,33.314 C66.136,33.23 66.025,33.148 65.924,33.055 C65.582,32.743 64.722,31.9 64.722,31.9 C64.722,31.426 64.651,30.509 64.025,29.958 C63.757,29.723 63.503,29.599 62.939,29.497 C62.939,29.497 63.21,29.069 63.253,28.901 C63.745,29.393 64.734,29.54 64.734,28.709 C65.54,29.516 66.289,29.081 66.289,28.575 C66.315,28.822 66.377,29.093 66.461,29.327 C66.564,29.598 66.933,30.639 67.885,30.639 C67.906,31.001 67.908,32.191 69.047,32.458 C69.097,32.47 69.158,32.486 69.191,32.524 C69.651,33.096 71.562,33.697 71.795,33.535 C71.648,33.429 71.412,33.288 71.375,32.616 C71.353,32.172 71.303,29.873 71.303,26.632 C71.303,25.486 71.181,21.77 67.506,21.252 C66.948,21.174 66.402,21.215 65.926,21.568 C65.28,22.05 64.961,22.864 65.342,23.785 C65.355,23.818 65.363,23.85 65.381,23.879 C65.51,24.098 65.457,24.288 65.289,24.456 C64.983,24.76 64.625,24.966 64.195,25.016 C63.924,25.047 63.699,24.928 63.52,24.742 C63.108,24.317 62.817,23.82 62.727,23.232 C62.552,22.114 62.831,21.561 62.849,21.525 C63.148,20.926 63.782,20.486 64.518,20.423 C64.855,19.793 65.821,20.043 65.821,20.043 C66.064,20.096 66.149,20.165 66.209,20.284 C66.209,20.284 66.634,19.638 66.234,19.378 C65.834,19.119 64.94,19.012 64.94,19.012 C64.94,18.591 64.243,18.264 62.985,18.488 C61.464,18.76 61.138,18.165 61.138,18.165 C61.075,18.893 61.63,19.269 61.81,19.37 C61.233,19.996 60.425,21.247 60.234,23.022 C60.042,21.247 59.235,19.996 58.659,19.37 C58.837,19.269 59.393,18.893 59.33,18.165 C59.33,18.165 59.003,18.76 57.483,18.488 C56.225,18.264 55.529,18.591 55.529,19.012 C55.529,19.012 54.634,19.119 54.234,19.378 C53.834,19.638 54.258,20.284 54.258,20.284 C54.319,20.165 54.404,20.096 54.647,20.043 C54.647,20.043 55.614,19.793 55.95,20.423 C56.686,20.486 57.32,20.926 57.619,21.525 C57.636,21.561 57.933,22.119 57.742,23.232 C57.641,23.818 57.361,24.317 56.949,24.742 C56.769,24.928 56.545,25.047 56.273,25.016 C55.843,24.966 55.486,24.76 55.179,24.456 C55.011,24.288 54.959,24.098 55.088,23.879 C55.105,23.85 55.115,23.818 55.127,23.785 C55.507,22.864 55.189,22.05 54.543,21.568 C54.068,21.215 53.52,21.174 52.963,21.252 C49.289,21.77 49.165,25.486 49.165,26.632 C49.165,29.873 49.117,32.172 49.093,32.616 C49.056,33.288 48.822,33.429 48.673,33.535 C48.907,33.697 50.819,33.096 51.279,32.524 C51.31,32.486 51.373,32.47 51.421,32.458 C52.56,32.191 52.562,31.001 52.584,30.639 C53.536,30.639 53.906,29.598 54.007,29.327 C54.091,29.093 54.154,28.822 54.179,28.575 C54.179,29.081 54.928,29.516 55.734,28.709 C55.734,29.54 56.723,29.393 57.215,28.901 C57.258,29.069 57.531,29.497 57.531,29.497 C56.966,29.599 56.711,29.723 56.444,29.958 C55.819,30.509 55.748,31.426 55.748,31.9 C55.748,31.9 54.886,32.743 54.545,33.055 C54.443,33.148 54.332,33.23 54.222,33.314 C53.338,32.325 53.043,32.712 53.044,32.713 C52.391,32.45 52.028,32.918 52.171,33.155 C52.324,32.982 52.572,33.033 52.721,33.167 L52.721,33.168 C51.838,33.315 52.043,33.964 52.281,34.099 C52.281,33.913 52.339,33.706 52.617,33.687 C52.604,33.973 52.796,34.023 52.98,34.03 C53.417,34.048 54.148,34.069 54.372,34.287 C54.499,34.411 54.437,34.775 54.575,34.899 C54.689,35.001 54.81,34.989 54.873,34.99 C54.894,35.124 54.855,35.275 54.685,35.453 C55.321,35.506 55.797,34.945 55.482,34.647 C55.35,34.521 54.905,34.099 54.883,33.917 C54.854,33.721 55.06,33.503 55.203,33.375 C55.509,33.102 55.839,32.858 56.164,32.605 C56.259,32.53 56.371,32.463 56.48,32.403 C56.568,32.354 56.692,32.332 56.804,32.368 C57.048,32.444 57.044,32.438 57.108,32.396 C57.348,32.238 57.782,31.881 58.685,31.782 C58.624,31.82 58.582,31.86 58.548,31.907 C58.499,31.974 58.466,32.055 58.414,32.166 C58.355,32.291 58.31,32.42 58.257,32.545 C57.673,33.926 57.095,35.283 56.513,36.665 C56.32,37.122 56.492,37.521 56.963,37.742 C57.306,37.901 57.697,37.815 57.927,37.483 C57.861,37.712 57.83,37.909 57.923,38.099 C58.015,38.289 58.164,38.425 58.359,38.507 C58.547,38.59 58.769,38.62 58.974,38.58 C59.183,38.537 59.322,38.398 59.429,38.196 C59.447,38.646 59.743,38.976 60.234,38.976" id="Path" fill="#595959" mask="url(#mask-28)"></path>
            </g>
        </g>
    </g>
</svg>